<?xml version="1.0" encoding="UTF-8"?>
<svg width="105px" height="31px" viewBox="0 0 105 31" version="1.1" xmlns="http://www.w3.org/2000/svg" xmlns:xlink="http://www.w3.org/1999/xlink">
    <!-- Generator: Sketch 43.1 (39012) - http://www.bohemiancoding.com/sketch -->
    <title>linuxkit-blk@3x</title>
    <desc>Created with Sketch.</desc>
    <defs></defs>
    <g id="Page-1" stroke="none" stroke-width="1" fill="none" fill-rule="evenodd">
        <path d="M41,20 L35,20 L35,23 L42.5,23 L44,23 L44,8 L41,8 L41,20 Z M0,0 L105,0 L105,31 L0,31 L0,0 Z M62,4 L62,27 L101,27 L101,4 L62,4 Z M4,8 L4,23 L7,23 L7,8 L4,8 Z M13,8 L13,11 L16,11 L16,8 L13,8 Z M13,13 L13,23 L16,23 L16,13 L13,13 Z M7,20 L7,23 L11,23 L11,20 L7,20 Z M18,8 L18,11 L30,11 L30,8 L18,8 Z M27,11 L27,23 L30,23 L30,11 L27,11 Z M18,11 L18,23 L21,23 L21,11 L18,11 Z M32,8 L32,23 L35,23 L35,8 L32,8 Z M46,8 L46,14 L49,14 L49,8 L46,8 Z M49,14 L49,17 L55,17 L55,14 L49,14 Z M55,8 L55,14 L58,14 L58,8 L55,8 Z M55,17 L55,23 L58,23 L58,17 L55,17 Z M46,17 L46,23 L49,23 L49,17 L46,17 Z M66,8 L69.381,8 L69.381,14.141 L69.473,14.141 L73.935,8 L77.661,8 L73.13,13.98 L78.489,22.996 L74.786,22.996 L71.129,16.671 L69.381,18.971 L69.381,22.996 L66,22.996 L66,8 Z M80.122,8 L83.503,8 L83.503,22.996 L80.122,22.996 L80.122,8 Z M89.966,10.852 L85.849,10.852 L85.849,8 L97.487,8 L97.487,10.852 L93.37,10.852 L93.37,22.996 L89.966,22.996 L89.966,10.852 Z" id="linuxkit-blk" fill="#000000"></path>
    </g>
</svg>